<svg width="29" height="40" viewBox="0 0 29 40" fill="none" xmlns="http://www.w3.org/2000/svg">
<path d="M17.9053 0.495728H28.2025V26.8774C28.1899 29.3828 27.5573 31.5876 26.3046 33.4917C25.0645 35.3832 23.3483 36.8614 21.1561 37.9262C18.9764 38.9785 16.4647 39.5046 13.6211 39.5046C11.1533 39.5046 8.89845 39.0787 6.85656 38.2268C4.81467 37.3625 3.18617 36.0096 1.97106 34.1681C0.75595 32.3141 0.154657 29.909 0.167184 26.9526H10.6146C10.6522 27.9172 10.8151 28.7314 11.1032 29.3954C11.4038 30.0593 11.8172 30.5604 12.3434 30.8986C12.882 31.2243 13.5334 31.3871 14.2976 31.3871C15.0742 31.3871 15.7256 31.218 16.2518 30.8798C16.7904 30.5416 17.1975 30.0405 17.4731 29.3766C17.7487 28.7001 17.8928 27.8671 17.9053 26.8774V0.495728Z" fill="#96DFEB"/>
</svg>
